<svg width="414" height="418" viewBox="0 0 414 418" fill="none" xmlns="http://www.w3.org/2000/svg">
<g style="mix-blend-mode:multiply">
<path d="M206.96 418C321.261 418 413.92 412.003 413.92 404.606C413.92 397.209 321.261 391.212 206.96 391.212C92.6592 391.212 0 397.209 0 404.606C0 412.003 92.6592 418 206.96 418Z" fill="url(#paint0_radial_2_472)"/>
</g>
<path d="M55.0937 312.045C70.8463 331.82 90.346 348.302 112.479 360.551C134.612 372.799 158.945 380.575 184.088 383.432C209.231 386.29 234.691 384.174 259.015 377.206C283.339 370.237 306.05 358.553 325.85 342.819L86.3134 41.6166C66.4678 57.3175 49.9163 76.7703 37.6053 98.8627C25.2943 120.955 17.4652 145.254 14.5658 170.37C11.6663 195.485 13.7533 220.925 20.7073 245.235C27.6614 269.545 39.3463 292.247 55.0937 312.045Z" fill="#4F4DDD"/>
<path d="M388.689 253.287C401.63 214.582 401.889 172.767 389.427 133.905C376.966 95.0435 352.432 61.1546 319.383 37.152L206.002 192.457L388.689 253.287Z" fill="#3B3998"/>
<path d="M206.082 192.377L319.383 37.152C302.626 24.8434 283.961 15.3631 264.13 9.08871L205.204 191.341L205.922 192.218L206.082 192.377Z" fill="#009ED0"/>
<path d="M388.689 253.287L206.002 192.457L221.173 211.432L338.147 332.295C361.295 310.552 378.664 283.401 388.689 253.287Z" fill="#CC1B59"/>
<path d="M325.85 342.819C330.162 339.391 333.835 335.803 338.146 332.136L205.922 192.377L325.85 342.819Z" fill="#D982B1"/>
<path d="M86.0737 41.7761L205.842 192.457L264.289 9.0887C234.178 -0.47969 202.171 -2.50286 171.091 3.19761C140.011 8.89809 110.814 22.1471 86.0737 41.7761Z" fill="#FDB600"/>
<path d="M206.082 281.59C255.383 281.59 295.349 241.684 295.349 192.457C295.349 143.23 255.383 103.324 206.082 103.324C156.781 103.324 116.814 143.23 116.814 192.457C116.814 241.684 156.781 281.59 206.082 281.59Z" fill="white"/>
<path d="M205.044 144.303V159.451C205.044 164.075 205.044 168.699 205.044 173.403C205.081 173.706 205.014 174.012 204.854 174.273C204.695 174.533 204.452 174.732 204.165 174.838L193.466 180.977C193.254 181.076 193.022 181.128 192.787 181.128C192.553 181.128 192.321 181.076 192.109 180.977L166.877 166.785L205.044 144.303Z" fill="#4F4DDD"/>
<path d="M204.964 240.531L166.479 218.368L173.505 214.302L191.63 203.698C191.927 203.506 192.274 203.404 192.628 203.404C192.982 203.404 193.329 203.506 193.626 203.698L204.086 209.837C204.289 209.969 204.459 210.145 204.583 210.352C204.708 210.56 204.783 210.792 204.804 211.033C204.804 220.6 204.804 230.247 204.804 239.894C205.044 240.053 204.964 240.212 204.964 240.531Z" fill="#4F4DDD"/>
<path d="M209.356 144.383L247.522 166.467C247.282 166.687 247.013 166.875 246.723 167.025L222.131 181.216C221.879 181.41 221.57 181.515 221.253 181.515C220.935 181.515 220.626 181.41 220.374 181.216L210.074 175.396C209.873 175.281 209.703 175.12 209.578 174.926C209.453 174.731 209.377 174.51 209.356 174.28C209.356 164.633 209.356 154.906 209.356 145.26C209.293 144.971 209.293 144.672 209.356 144.383Z" fill="#4F4DDD"/>
<path d="M209.275 240.611V211.192C209.275 210.555 209.275 210.156 209.914 209.837L220.693 203.619C220.917 203.468 221.182 203.387 221.452 203.387C221.722 203.387 221.986 203.468 222.21 203.619L247.521 217.969L248.08 218.368L209.275 240.611Z" fill="#4F4DDD"/>
<path d="M164.322 214.621V170.214L168.474 172.605L189.633 184.803C189.954 184.94 190.222 185.177 190.395 185.479C190.568 185.782 190.637 186.132 190.591 186.478V198.676C190.623 198.948 190.571 199.223 190.443 199.464C190.314 199.706 190.116 199.904 189.873 200.031L164.961 214.302L164.322 214.621Z" fill="#4F4DDD"/>
<defs>
<radialGradient id="paint0_radial_2_472" cx="0" cy="0" r="1" gradientUnits="userSpaceOnUse" gradientTransform="translate(206.96 406.34) scale(146.677 7.32277)">
<stop stop-color="#ABABAB"/>
<stop offset="1" stop-color="#F8F8F8"/>
</radialGradient>
</defs>
</svg>
